<svg width="54" height="54" viewBox="0 0 54 54" fill="none" xmlns="http://www.w3.org/2000/svg">
<g id="logos:spotify-icon" clip-path="url(#clip0_15_1649)">
<path id="Vector" d="M27 0C12.0884 0 0 12.0886 0 27C0 41.9124 12.0886 54 27 54C41.9126 54 54 41.9124 54 27C54 12.0897 41.9126 0.00147656 26.9996 0.00147656L26.9998 0.000210938L27 0ZM39.3818 38.942C38.8981 39.7351 37.8599 39.9866 37.0668 39.4997C30.7275 35.6276 22.7473 34.7505 13.349 36.8978C12.9138 36.9969 12.457 36.919 12.0792 36.6814C11.7014 36.4438 11.4334 36.0659 11.3341 35.6307C11.2846 35.4153 11.2781 35.1922 11.315 34.9743C11.3519 34.7563 11.4314 34.5478 11.5489 34.3606C11.6665 34.1735 11.8198 34.0113 12.0001 33.8835C12.1804 33.7556 12.3842 33.6646 12.5997 33.6156C22.885 31.2658 31.7071 32.2774 38.8241 36.627C39.6172 37.1138 39.8687 38.1489 39.3818 38.942ZM42.6866 31.5902C42.077 32.5806 40.781 32.8934 39.7912 32.284C32.5337 27.8231 21.4707 26.5311 12.8866 29.1368C11.7733 29.473 10.5975 28.8457 10.2596 27.7343C9.92419 26.6209 10.5519 25.4473 11.6634 25.1089C21.4688 22.1335 33.6589 23.5748 41.9934 28.6964C42.9832 29.306 43.296 30.6018 42.6866 31.5902ZM42.9703 23.9347C34.2683 18.7658 19.9112 18.2904 11.603 20.8124C10.2689 21.2169 8.8579 20.4637 8.45374 19.1295C8.04937 17.7947 8.80179 16.3848 10.137 15.9791C19.6741 13.0838 35.529 13.6434 45.5475 19.591C46.7503 20.3032 47.1435 21.8531 46.4309 23.0515C45.7218 24.2517 44.1676 24.6472 42.9716 23.9347H42.9703Z" fill="#1ED760"/>
</g>
<defs>
<clipPath id="clip0_15_1649">
<rect width="54" height="54" fill="white"/>
</clipPath>
</defs>
</svg>
